
<svg version="1.1" xmlns="http://www.w3.org/2000/svg" width="256" height="256">
<path d="M0 0 C5.77683516 4.95697864 8.35800888 11.77943356 9.02734375 19.1640625 C9.33682596 31.39675415 6.94219082 44.02986834 2.7890625 55.53515625 C3.34891846 55.57479492 3.90877441 55.61443359 4.4855957 55.65527344 C7.02611978 55.84601692 9.56340406 56.06524361 12.1015625 56.28515625 C12.98263672 56.34703125 13.86371094 56.40890625 14.77148438 56.47265625 C21.254896 57.06429838 21.254896 57.06429838 23.8984375 59.39453125 C25.29681183 62.75553622 24.71609138 65.07424845 23.7890625 68.53515625 C21.89795139 70.85329245 20.45078219 72.2042964 17.7890625 73.53515625 C15.39488938 73.63358658 12.99775345 73.66488713 10.6015625 73.66015625 C9.30863281 73.66273438 8.01570313 73.6653125 6.68359375 73.66796875 C2.94424688 73.5404484 -0.52695125 73.13720848 -4.2109375 72.53515625 C-4.73300781 73.52773437 -5.25507813 74.5203125 -5.79296875 75.54296875 C-15.21554077 93.07833617 -28.04207263 112.56941651 -47.984375 119.09375 C-54.58471714 120.40223888 -61.66728677 120.95113738 -67.6484375 117.47265625 C-69.5078125 116.0625 -69.5078125 116.0625 -71.2109375 114.53515625 C-72.02304688 113.82552734 -72.02304688 113.82552734 -72.8515625 113.1015625 C-86.45879899 99.32251747 -86.44105679 74.18755762 -86.4609375 56.09765625 C-86.46227692 55.37771484 -86.46361633 54.65777344 -86.46499634 53.91601562 C-86.46098021 43.8917695 -86.04414924 34.00474337 -84.8984375 24.03515625 C-84.78081055 22.9994751 -84.66318359 21.96379395 -84.54199219 20.89672852 C-82.6841656 6.51757837 -82.6841656 6.51757837 -78.0859375 0.97265625 C-74.06754752 -1.03653874 -70.61954498 -1.27947774 -66.2109375 -0.46484375 C-63.34063881 1.32909293 -61.71962112 2.51778901 -60.2109375 5.53515625 C-60.36004858 12.1648644 -61.35428713 18.77894088 -62.2109375 25.34765625 C-64.89523998 46.1949953 -68.53970719 75.09060406 -58.2109375 94.53515625 C-56.46309914 96.56741975 -55.47561328 97.43222678 -52.9609375 98.41015625 C-48.19509896 98.62678527 -44.95018338 96.89383095 -41.30078125 94.04296875 C-32.95454108 86.31066673 -26.92761835 75.78881027 -22.2109375 65.53515625 C-23.5103125 64.57609375 -23.5103125 64.57609375 -24.8359375 63.59765625 C-31.9584935 57.65377382 -36.7450951 48.63880907 -38.2109375 39.53515625 C-39.06900759 26.81883889 -38.48848566 15.10197547 -29.9609375 4.91015625 C-22.06682702 -3.00966794 -10.20506823 -5.8584651 0 0 Z M-18.8984375 16.78515625 C-23.53496462 22.29886418 -22.83435853 29.64746178 -22.46386719 36.53955078 C-21.89184884 41.05275343 -19.71392829 44.81642708 -17.2109375 48.53515625 C-16.2209375 48.53515625 -15.2309375 48.53515625 -14.2109375 48.53515625 C-9.33725415 32.96655779 -9.33725415 32.96655779 -11.12109375 17.2421875 C-12.10816799 15.41072019 -12.10816799 15.41072019 -14.0234375 14.47265625 C-16.51520785 14.31770509 -16.51520785 14.31770509 -18.8984375 16.78515625 Z " fill="#000000" transform="translate(217.2109375,64.46484375)"/>
<path d="M0 0 C0.81823242 0.11754639 1.63646484 0.23509277 2.47949219 0.35620117 C7.11118255 1.11473983 10.94742977 2.1855321 15 4.6875 C17.44849145 8.36023717 17.71299677 11.41810968 17 15.6875 C15.1875 18.1875 15.1875 18.1875 13 19.6875 C12.01 19.6875 11.02 19.6875 10 19.6875 C9.87044922 21.11449219 9.87044922 21.11449219 9.73828125 22.5703125 C1.92866938 102.58940098 1.92866938 102.58940098 -25 126.6875 C-33.68667158 133.07911346 -42.52397017 134.0908311 -53 132.6875 C-59.55590329 130.53934597 -64.88926461 127.107643 -68.3125 121 C-72.35128255 111.90425443 -71.23156521 102.90467913 -68 93.6875 C-58.6491313 74.78838279 -38.32283612 62.67171919 -19 55.6875 C-18.01 55.6875 -17.02 55.6875 -16 55.6875 C-15.81824219 53.8003125 -15.81824219 53.8003125 -15.6328125 51.875 C-14.81005838 43.42872051 -13.9649816 34.98667033 -12.9375 26.5625 C-12.70353516 24.64050781 -12.70353516 24.64050781 -12.46484375 22.6796875 C-12 19.6875 -12 19.6875 -11 17.6875 C-35.23774346 16.74991408 -35.23774346 16.74991408 -58 23.6875 C-58.66 23.6875 -59.32 23.6875 -60 23.6875 C-62.22189008 28.91547666 -62.05488103 32.23728137 -61 37.6875 C-60.34870203 39.02840759 -59.68486725 40.36342331 -59 41.6875 C-58.5625 44.125 -58.5625 44.125 -59 46.6875 C-61.5976856 50.25931771 -63.74993315 51.93982583 -68.0625 52.625 C-71.83685994 52.68491048 -72.99394002 52.66876681 -76 50.6875 C-77.23046875 48.8828125 -77.23046875 48.8828125 -78.1875 46.8125 C-78.51105469 46.13445312 -78.83460937 45.45640625 -79.16796875 44.7578125 C-82.25820166 37.06850057 -81.94779075 28.41710457 -78.95703125 20.7421875 C-74.81219461 11.84347699 -67.97070012 7.15549158 -58.95703125 3.4296875 C-40.31414388 -2.8232064 -19.2912686 -2.80121264 0 0 Z M-20 72.6875 C-33.03132278 79.22358666 -44.17897914 85.94977172 -50.375 99.75 C-51.41312573 104.62919093 -51.67158792 108.83075693 -49.9375 113.625 C-48.05213088 115.9660274 -48.05213088 115.9660274 -44.6875 116.75 C-39.98287128 116.67026053 -38.5379479 115.78320441 -35 112.6875 C-26.67796767 104.06891417 -23.5505841 93.34094823 -20.625 82 C-20.35490112 80.95670532 -20.35490112 80.95670532 -20.0793457 79.89233398 C-19.0284931 76.22188698 -19.0284931 76.22188698 -20 72.6875 Z " transform="translate(103,65.3125)"/>
<style>
        path { fill: #fff; }
        @media (prefers-color-scheme: dark) {
            path { fill: #000; }
        }
    </style>
</svg>
