<?xml version="1.0" encoding="UTF-8"?>
<!DOCTYPE svg PUBLIC "-//W3C//DTD SVG 1.1//EN" "http://www.w3.org/Graphics/SVG/1.1/DTD/svg11.dtd">
<svg xmlns="http://www.w3.org/2000/svg" version="1.1" width="512px" height="1152px" style="shape-rendering:geometricPrecision; text-rendering:geometricPrecision; image-rendering:optimizeQuality; fill-rule:evenodd; clip-rule:evenodd" xmlns:xlink="http://www.w3.org/1999/xlink">
<g><path style="opacity:0.992" fill="#000000" d="M 377.5,-0.5 C 386.833,-0.5 396.167,-0.5 405.5,-0.5C 444.746,6.90323 470.913,29.5699 484,67.5C 498.762,82.6918 507.929,100.692 511.5,121.5C 511.5,388.167 511.5,654.833 511.5,921.5C 501.007,1006.46 459.007,1070.62 385.5,1114C 342.666,1136.8 297,1146.63 248.5,1143.5C 168.58,1148.11 105.08,1118.45 58,1054.5C 51.5716,1044.65 45.9049,1034.31 41,1023.5C 17.4563,992.701 3.62301,958.035 -0.5,919.5C -0.5,869.833 -0.5,820.167 -0.5,770.5C 7.9871,729.18 32.9871,704.347 74.5,696C 113.147,692.077 142.98,706.244 164,738.5C 167.779,745.172 170.779,752.172 173,759.5C 187.21,773.585 195.877,790.585 199,810.5C 199.333,835.5 199.667,860.5 200,885.5C 200.045,888.334 200.879,890.834 202.5,893C 228.511,907.888 253.178,905.888 276.5,887C 287.663,875.838 293.829,862.338 295,846.5C 295.333,591.5 295.667,336.5 296,81.5C 305.349,36.3182 332.515,8.98491 377.5,-0.5 Z"/></g>
<g><path style="opacity:1" fill="#90a7ec" d="M 381.5,15.5 C 430.162,14.351 459.995,37.351 471,84.5C 471.667,347.5 471.667,610.5 471,873.5C 462.27,963.523 417.437,1028.36 336.5,1068C 315.564,1076.65 293.897,1082.65 271.5,1086C 242.859,1087.59 214.192,1087.92 185.5,1087C 116.744,1077.89 66.2439,1042.72 34,981.5C 24.2006,960.897 18.2006,939.23 16,916.5C 15.0234,866.796 15.3567,817.129 17,767.5C 29.0878,729.078 55.2545,710.578 95.5,712C 125.144,716.308 145.311,732.474 156,760.5C 157.472,764.723 158.472,769.057 159,773.5C 159.333,799.833 159.667,826.167 160,852.5C 168.032,893.867 193.032,916.201 235,919.5C 277.06,916.774 302.394,894.774 311,853.5C 311.333,596.833 311.667,340.167 312,83.5C 320.256,45.4088 343.423,22.7422 381.5,15.5 Z"/></g>
</svg>
